<svg xmlns="http://www.w3.org/2000/svg" viewBox="1051.501 -258.446 15 15.302">
  <defs>
    <style>
      .cls-1 {
        fill: #fff;
      }
    </style>
  </defs>
  <g id="심볼_3_1" data-name="심볼 3 – 1" transform="translate(1067.317 -488.407)">
    <path id="설정" class="cls-1" d="M20.794,18.4h-.026A2.943,2.943,0,0,0,17.8,21.317a2.9,2.9,0,0,0,.844,2.073,2.826,2.826,0,0,0,2.047.87h.026a2.913,2.913,0,0,0,2.1-4.964A2.9,2.9,0,0,0,20.794,18.4Zm-.051,4.734h0a1.778,1.778,0,1,1,0-3.557h0A1.747,1.747,0,0,1,22,20.114a1.808,1.808,0,0,1,.537,1.254A1.7,1.7,0,0,1,22,22.622,1.9,1.9,0,0,1,20.743,23.134Z" transform="translate(-29.069 216.269)"/>
    <path id="설정-2" data-name="설정" class="cls-1" d="M14.712,9.314l-.154-.1c-.333-.23-.64-.461-.972-.665-.051-.026-.051-.051-.051-.128q.038-.768,0-1.535c0-.077,0-.077.051-.128.384-.256.768-.537,1.126-.793a.565.565,0,0,0,.179-.819c-.512-.87-1-1.766-1.51-2.636a.586.586,0,0,0-.844-.256l-.154.077c-.358.179-.742.333-1.1.512-.026.026-.026.026-.1-.026-.435-.256-.87-.512-1.331-.768C9.8,2.021,9.8,2,9.773,1.97c-.026-.486-.051-.947-.1-1.433A.553.553,0,0,0,9.082,0H5.96a.557.557,0,0,0-.589.563V.716C5.346,1.151,5.3,1.561,5.244,2a.089.089,0,0,0-.026.051,6.115,6.115,0,0,0-1.433.819.025.025,0,0,0-.026.026H3.734c-.435-.2-.844-.409-1.279-.614a.535.535,0,0,0-.154-.1H2.224a.625.625,0,0,0-.589.358C1.3,3.122.945,3.736.612,4.324l-.461.793a.6.6,0,0,0,.2.9l.179.128c.307.23.614.435.947.64l.026.026v.026a5.851,5.851,0,0,0,0,1.638V8.5l-.026.026C1.1,8.777.715,9.058.331,9.34a.56.56,0,0,0-.179.819l1.484,2.61a.6.6,0,0,0,.844.281c.435-.2.844-.384,1.279-.589.051-.026.051-.026.1,0,.435.281.9.537,1.356.793.077.026.077.051.077.077.026.256.051.512.077.742.026.2.026.409.051.614a.572.572,0,0,0,.64.614H9.082a.591.591,0,0,0,.64-.589l.026-.2c.026-.384.077-.793.1-1.177,0-.026,0-.026.051-.051a7.05,7.05,0,0,0,.742-.435,5.151,5.151,0,0,1,.64-.358.089.089,0,0,0,.051-.026c.307.128.589.281.9.409l.384.179a.6.6,0,0,0,.87-.281c.486-.87,1-1.714,1.484-2.584A.656.656,0,0,0,14.712,9.314Zm-6.09,3.429c-.026.384-.051.742-.1,1.126l-.026.281H6.549l-.1-.972c-.026-.154-.026-.333-.051-.486a.361.361,0,0,0-.256-.281,4.949,4.949,0,0,1-2.047-1.177.357.357,0,0,0-.435-.051c-.358.154-.716.333-1.049.486l-.256.128L1.38,10.107l.486-.384c.23-.179.486-.333.716-.512a.414.414,0,0,0,.154-.384,4.99,4.99,0,0,1,0-2.38.377.377,0,0,0-.179-.409c-.333-.23-.64-.461-.972-.691L1.406,5.22l.972-1.689.819.358c.154.077.333.154.486.23a.354.354,0,0,0,.435-.077A4.787,4.787,0,0,1,6.14,2.866a.363.363,0,0,0,.281-.333c.026-.384.077-.742.1-1.126L6.549,1.1H8.494l.077.947V2.2c0,.128.026.256.026.358a.4.4,0,0,0,.256.281,5.14,5.14,0,0,1,2.073,1.2.47.47,0,0,0,.409.051c.358-.154.742-.333,1.126-.486l.2-.1.972,1.689-.537.435c-.2.154-.409.281-.614.409a.389.389,0,0,0-.179.461,4.893,4.893,0,0,1,0,2.277.372.372,0,0,0,.154.435c.307.23.64.435.947.665l.23.154-.972,1.689-.256-.128c-.333-.154-.691-.307-1.024-.461a.4.4,0,0,0-.512.077,4.8,4.8,0,0,1-1.945,1.126A.408.408,0,0,0,8.622,12.743Z" transform="translate(-15.848 229.96)"/>
  </g>
</svg>
