<svg xmlns="http://www.w3.org/2000/svg" viewBox="-1251 340 16 16">
  <defs>
    <style>
      .cls-1 {
        fill: none;
      }

      .cls-2 {
        fill-rule: evenodd;
      }
    </style>
  </defs>
  <g id="Lock" transform="translate(-1273 1)">
    <rect id="사각형_118" data-name="사각형 118" class="cls-1" width="16" height="16" transform="translate(22 339)"/>
    <path id="패스_49" data-name="패스 49" class="cls-2" d="M7,8a2,2,0,1,1-2,2A2.006,2.006,0,0,1,7,8ZM7,2A2.006,2.006,0,0,0,5,4H9A2.006,2.006,0,0,0,7,2Zm5,14H2a2.006,2.006,0,0,1-2-2V6A2.006,2.006,0,0,1,2,4H3a4,4,0,0,1,8,0h1a2.006,2.006,0,0,1,2,2v8A2.006,2.006,0,0,1,12,16Z" transform="translate(23 339)"/>
  </g>
</svg>
