<svg xmlns="http://www.w3.org/2000/svg" viewBox="-5713 -832 16 16">
  <defs>
    <style>
      .cls-1 {
        fill: none;
      }
    </style>
  </defs>
  <g id="Phone" transform="translate(-5911 -1291)">
    <rect id="사각형_320" data-name="사각형 320" class="cls-1" width="16" height="16" transform="translate(198 459)"/>
    <path id="패스_110" data-name="패스 110" d="M9.286,11.429,11,9.857a.525.525,0,0,1,.429-.143l.286.143,4,1.857c.286.143.286.286.286.571a3.622,3.622,0,0,1-1.143,2.571,4.092,4.092,0,0,1-3,1.143,8.7,8.7,0,0,1-4-1,18.727,18.727,0,0,1-4-2.857A24.333,24.333,0,0,1,1.714,9,19.747,19.747,0,0,1,.286,5.857,8.791,8.791,0,0,1,0,3.143,3.754,3.754,0,0,1,1,1,4.344,4.344,0,0,1,3.714,0a.742.742,0,0,1,.571.286l2.143,4a.5.5,0,0,0,.143.286A.525.525,0,0,1,6.429,5L4.571,6.714a.638.638,0,0,0,0,.714A13.642,13.642,0,0,0,6.286,9.714a14.424,14.424,0,0,0,2.286,1.857C8.857,11.714,9.143,11.714,9.286,11.429Z" transform="translate(198 459)"/>
  </g>
</svg>
